<svg xmlns="http://www.w3.org/2000/svg" xmlns:xlink="http://www.w3.org/1999/xlink" version="1.1" width="256" height="256" viewBox="0 0 256 256" xml:space="preserve">

<defs>
</defs>
<g style="stroke: none; stroke-width: 0; stroke-dasharray: none; stroke-linecap: butt; stroke-linejoin: miter; stroke-miterlimit: 10; fill: none; fill-rule: nonzero; opacity: 1;" transform="translate(1.4065934065934016 1.4065934065934016) scale(2.81 2.81)" >
	<circle cx="56.357" cy="30.127000000000002" r="17.657" style="stroke: none; stroke-width: 1; stroke-dasharray: none; stroke-linecap: butt; stroke-linejoin: miter; stroke-miterlimit: 10; fill: rgb(249,193,0); fill-rule: nonzero; opacity: 1;" transform="  matrix(1 0 0 1 0 0) "/>
	<path d="M 56.356 7.992 c -0.553 0 -1 -0.448 -1 -1 V 1 c 0 -0.552 0.447 -1 1 -1 s 1 0.448 1 1 v 5.992 C 57.356 7.544 56.909 7.992 56.356 7.992 z" style="stroke: none; stroke-width: 1; stroke-dasharray: none; stroke-linecap: butt; stroke-linejoin: miter; stroke-miterlimit: 10; fill: rgb(249,193,0); fill-rule: nonzero; opacity: 1;" transform=" matrix(1 0 0 1 0 0) " stroke-linecap="round" />
	<path d="M 85.48 31.124 h -5.992 c -0.553 0 -1 -0.448 -1 -1 s 0.447 -1 1 -1 h 5.992 c 0.553 0 1 0.448 1 1 S 86.033 31.124 85.48 31.124 z" style="stroke: none; stroke-width: 1; stroke-dasharray: none; stroke-linecap: butt; stroke-linejoin: miter; stroke-miterlimit: 10; fill: rgb(249,193,0); fill-rule: nonzero; opacity: 1;" transform=" matrix(1 0 0 1 0 0) " stroke-linecap="round" />
	<path d="M 40 14.768 c -0.256 0 -0.512 -0.098 -0.707 -0.293 l -4.237 -4.237 c -0.391 -0.391 -0.391 -1.023 0 -1.414 s 1.023 -0.391 1.414 0 l 4.237 4.237 c 0.391 0.391 0.391 1.023 0 1.414 C 40.511 14.67 40.255 14.768 40 14.768 z" style="stroke: none; stroke-width: 1; stroke-dasharray: none; stroke-linecap: butt; stroke-linejoin: miter; stroke-miterlimit: 10; fill: rgb(249,193,0); fill-rule: nonzero; opacity: 1;" transform=" matrix(1 0 0 1 0 0) " stroke-linecap="round" />
	<path d="M 72.713 14.768 c -0.256 0 -0.512 -0.098 -0.707 -0.293 c -0.391 -0.391 -0.391 -1.023 0 -1.414 l 4.237 -4.237 c 0.391 -0.391 1.023 -0.391 1.414 0 s 0.391 1.023 0 1.414 l -4.237 4.237 C 73.225 14.67 72.969 14.768 72.713 14.768 z" style="stroke: none; stroke-width: 1; stroke-dasharray: none; stroke-linecap: butt; stroke-linejoin: miter; stroke-miterlimit: 10; fill: rgb(249,193,0); fill-rule: nonzero; opacity: 1;" transform=" matrix(1 0 0 1 0 0) " stroke-linecap="round" />
	<path d="M 12.576 42.539 c -0.029 -0.436 -0.049 -0.875 -0.049 -1.318 c 0 -10.81 8.763 -19.573 19.573 -19.573 c 7.82 0 14.566 4.588 17.701 11.217 c 2.361 -1.676 5.239 -2.671 8.355 -2.671 c 7.21 0 13.169 5.281 14.265 12.182 c 4.964 1.358 8.617 5.889 8.617 11.284 c 0 6.468 -5.243 11.711 -11.711 11.711 H 16.23 c -6.468 0 -11.711 -5.243 -11.711 -11.711 C 4.519 48.47 7.899 44.075 12.576 42.539 z" style="stroke: none; stroke-width: 1; stroke-dasharray: none; stroke-linecap: butt; stroke-linejoin: miter; stroke-miterlimit: 10; fill: rgb(98,195,247); fill-rule: nonzero; opacity: 1;" transform=" matrix(1 0 0 1 0 0) " stroke-linecap="round" />
	<path d="M 59.72 80.8 c -0.553 0 -1 -0.447 -1 -1 v -8.587 c 0 -0.553 0.447 -1 1 -1 s 1 0.447 1 1 V 79.8 C 60.72 80.353 60.272 80.8 59.72 80.8 z" style="stroke: none; stroke-width: 1; stroke-dasharray: none; stroke-linecap: butt; stroke-linejoin: miter; stroke-miterlimit: 10; fill: rgb(123,216,247); fill-rule: nonzero; opacity: 1;" transform=" matrix(1 0 0 1 0 0) " stroke-linecap="round" />
	<path d="M 50.521 90 c -0.553 0 -1 -0.447 -1 -1 v -8.587 c 0 -0.553 0.447 -1 1 -1 s 1 0.447 1 1 V 89 C 51.521 89.553 51.073 90 50.521 90 z" style="stroke: none; stroke-width: 1; stroke-dasharray: none; stroke-linecap: butt; stroke-linejoin: miter; stroke-miterlimit: 10; fill: rgb(123,216,247); fill-rule: nonzero; opacity: 1;" transform=" matrix(1 0 0 1 0 0) " stroke-linecap="round" />
	<path d="M 41.32 80.8 c -0.552 0 -1 -0.447 -1 -1 v -8.587 c 0 -0.553 0.448 -1 1 -1 s 1 0.447 1 1 V 79.8 C 42.32 80.353 41.872 80.8 41.32 80.8 z" style="stroke: none; stroke-width: 1; stroke-dasharray: none; stroke-linecap: butt; stroke-linejoin: miter; stroke-miterlimit: 10; fill: rgb(123,216,247); fill-rule: nonzero; opacity: 1;" transform=" matrix(1 0 0 1 0 0) " stroke-linecap="round" />
	<path d="M 32.12 90 c -0.552 0 -1 -0.447 -1 -1 v -8.587 c 0 -0.553 0.448 -1 1 -1 s 1 0.447 1 1 V 89 C 33.12 89.553 32.672 90 32.12 90 z" style="stroke: none; stroke-width: 1; stroke-dasharray: none; stroke-linecap: butt; stroke-linejoin: miter; stroke-miterlimit: 10; fill: rgb(123,216,247); fill-rule: nonzero; opacity: 1;" transform=" matrix(1 0 0 1 0 0) " stroke-linecap="round" />
	<path d="M 22.92 80.8 c -0.552 0 -1 -0.447 -1 -1 v -8.587 c 0 -0.553 0.448 -1 1 -1 s 1 0.447 1 1 V 79.8 C 23.92 80.353 23.472 80.8 22.92 80.8 z" style="stroke: none; stroke-width: 1; stroke-dasharray: none; stroke-linecap: butt; stroke-linejoin: miter; stroke-miterlimit: 10; fill: rgb(123,216,247); fill-rule: nonzero; opacity: 1;" transform=" matrix(1 0 0 1 0 0) " stroke-linecap="round" />
</g>
</svg>